G04 #@! TF.FileFunction,Soldermask,Bot*
%FSLAX46Y46*%
G04 Gerber Fmt 4.6, Leading zero omitted, Abs format (unit mm)*
G04 Created by KiCad (PCBNEW 4.0.0-rc1-stable) date 5/15/2016 10:25:25 AM*
%MOMM*%
G01*
G04 APERTURE LIST*
%ADD10C,0.100000*%
%ADD11C,0.120000*%
%ADD12R,1.900000X1.900000*%
%ADD13C,1.900000*%
G04 APERTURE END LIST*
D10*
D11*
X133421426Y-67069286D02*
X133421426Y-67676429D01*
X133457140Y-67747857D01*
X133492855Y-67783571D01*
X133564283Y-67819286D01*
X133671426Y-67819286D01*
X133742855Y-67783571D01*
X133421426Y-67533571D02*
X133492855Y-67569286D01*
X133635712Y-67569286D01*
X133707140Y-67533571D01*
X133742855Y-67497857D01*
X133778569Y-67426429D01*
X133778569Y-67212143D01*
X133742855Y-67140714D01*
X133707140Y-67105000D01*
X133635712Y-67069286D01*
X133492855Y-67069286D01*
X133421426Y-67105000D01*
X133064284Y-67569286D02*
X133064284Y-67069286D01*
X133064284Y-66819286D02*
X133099998Y-66855000D01*
X133064284Y-66890714D01*
X133028569Y-66855000D01*
X133064284Y-66819286D01*
X133064284Y-66890714D01*
X132814283Y-67069286D02*
X132528569Y-67069286D01*
X132707141Y-66819286D02*
X132707141Y-67462143D01*
X132671426Y-67533571D01*
X132599998Y-67569286D01*
X132528569Y-67569286D01*
X132278570Y-67569286D02*
X132278570Y-66819286D01*
X131957141Y-67569286D02*
X131957141Y-67176429D01*
X131992855Y-67105000D01*
X132064284Y-67069286D01*
X132171427Y-67069286D01*
X132242855Y-67105000D01*
X132278570Y-67140714D01*
X131278570Y-67069286D02*
X131278570Y-67569286D01*
X131599999Y-67069286D02*
X131599999Y-67462143D01*
X131564284Y-67533571D01*
X131492856Y-67569286D01*
X131385713Y-67569286D01*
X131314284Y-67533571D01*
X131278570Y-67497857D01*
X130921428Y-67569286D02*
X130921428Y-66819286D01*
X130921428Y-67105000D02*
X130849999Y-67069286D01*
X130707142Y-67069286D01*
X130635713Y-67105000D01*
X130599999Y-67140714D01*
X130564285Y-67212143D01*
X130564285Y-67426429D01*
X130599999Y-67497857D01*
X130635713Y-67533571D01*
X130707142Y-67569286D01*
X130849999Y-67569286D01*
X130921428Y-67533571D01*
X130242857Y-67497857D02*
X130207142Y-67533571D01*
X130242857Y-67569286D01*
X130278571Y-67533571D01*
X130242857Y-67497857D01*
X130242857Y-67569286D01*
X129564285Y-67533571D02*
X129635714Y-67569286D01*
X129778571Y-67569286D01*
X129849999Y-67533571D01*
X129885714Y-67497857D01*
X129921428Y-67426429D01*
X129921428Y-67212143D01*
X129885714Y-67140714D01*
X129849999Y-67105000D01*
X129778571Y-67069286D01*
X129635714Y-67069286D01*
X129564285Y-67105000D01*
X129135714Y-67569286D02*
X129207142Y-67533571D01*
X129242857Y-67497857D01*
X129278571Y-67426429D01*
X129278571Y-67212143D01*
X129242857Y-67140714D01*
X129207142Y-67105000D01*
X129135714Y-67069286D01*
X129028571Y-67069286D01*
X128957142Y-67105000D01*
X128921428Y-67140714D01*
X128885714Y-67212143D01*
X128885714Y-67426429D01*
X128921428Y-67497857D01*
X128957142Y-67533571D01*
X129028571Y-67569286D01*
X129135714Y-67569286D01*
X128564286Y-67569286D02*
X128564286Y-67069286D01*
X128564286Y-67140714D02*
X128528571Y-67105000D01*
X128457143Y-67069286D01*
X128350000Y-67069286D01*
X128278571Y-67105000D01*
X128242857Y-67176429D01*
X128242857Y-67569286D01*
X128242857Y-67176429D02*
X128207143Y-67105000D01*
X128135714Y-67069286D01*
X128028571Y-67069286D01*
X127957143Y-67105000D01*
X127921428Y-67176429D01*
X127921428Y-67569286D01*
X127028571Y-66783571D02*
X127671428Y-67747857D01*
X126778572Y-67069286D02*
X126778572Y-67569286D01*
X126778572Y-67140714D02*
X126742857Y-67105000D01*
X126671429Y-67069286D01*
X126564286Y-67069286D01*
X126492857Y-67105000D01*
X126457143Y-67176429D01*
X126457143Y-67569286D01*
X125992858Y-67569286D02*
X126064286Y-67533571D01*
X126100001Y-67497857D01*
X126135715Y-67426429D01*
X126135715Y-67212143D01*
X126100001Y-67140714D01*
X126064286Y-67105000D01*
X125992858Y-67069286D01*
X125885715Y-67069286D01*
X125814286Y-67105000D01*
X125778572Y-67140714D01*
X125742858Y-67212143D01*
X125742858Y-67426429D01*
X125778572Y-67497857D01*
X125814286Y-67533571D01*
X125885715Y-67569286D01*
X125992858Y-67569286D01*
X125100001Y-67569286D02*
X125100001Y-67176429D01*
X125135715Y-67105000D01*
X125207144Y-67069286D01*
X125350001Y-67069286D01*
X125421430Y-67105000D01*
X125100001Y-67533571D02*
X125171430Y-67569286D01*
X125350001Y-67569286D01*
X125421430Y-67533571D01*
X125457144Y-67462143D01*
X125457144Y-67390714D01*
X125421430Y-67319286D01*
X125350001Y-67283571D01*
X125171430Y-67283571D01*
X125100001Y-67247857D01*
X124742859Y-67569286D02*
X124742859Y-66819286D01*
X124421430Y-67569286D02*
X124421430Y-67176429D01*
X124457144Y-67105000D01*
X124528573Y-67069286D01*
X124635716Y-67069286D01*
X124707144Y-67105000D01*
X124742859Y-67140714D01*
X124064288Y-67069286D02*
X124064288Y-67819286D01*
X124064288Y-67105000D02*
X123992859Y-67069286D01*
X123850002Y-67069286D01*
X123778573Y-67105000D01*
X123742859Y-67140714D01*
X123707145Y-67212143D01*
X123707145Y-67426429D01*
X123742859Y-67497857D01*
X123778573Y-67533571D01*
X123850002Y-67569286D01*
X123992859Y-67569286D01*
X124064288Y-67533571D01*
X122850002Y-66783571D02*
X123492859Y-67747857D01*
X132421427Y-68739286D02*
X132492855Y-68703571D01*
X132528570Y-68632143D01*
X132528570Y-67989286D01*
X132135713Y-68739286D02*
X132135713Y-68239286D01*
X132135713Y-67989286D02*
X132171427Y-68025000D01*
X132135713Y-68060714D01*
X132099998Y-68025000D01*
X132135713Y-67989286D01*
X132135713Y-68060714D01*
X131778570Y-68239286D02*
X131778570Y-68989286D01*
X131778570Y-68275000D02*
X131707141Y-68239286D01*
X131564284Y-68239286D01*
X131492855Y-68275000D01*
X131457141Y-68310714D01*
X131421427Y-68382143D01*
X131421427Y-68596429D01*
X131457141Y-68667857D01*
X131492855Y-68703571D01*
X131564284Y-68739286D01*
X131707141Y-68739286D01*
X131778570Y-68703571D01*
X130992856Y-68739286D02*
X131064284Y-68703571D01*
X131099999Y-68667857D01*
X131135713Y-68596429D01*
X131135713Y-68382143D01*
X131099999Y-68310714D01*
X131064284Y-68275000D01*
X130992856Y-68239286D01*
X130885713Y-68239286D01*
X130814284Y-68275000D01*
X130778570Y-68310714D01*
X130742856Y-68382143D01*
X130742856Y-68596429D01*
X130778570Y-68667857D01*
X130814284Y-68703571D01*
X130885713Y-68739286D01*
X130992856Y-68739286D01*
X130421428Y-68453571D02*
X129849999Y-68453571D01*
X129492857Y-68239286D02*
X129492857Y-68989286D01*
X129492857Y-68275000D02*
X129421428Y-68239286D01*
X129278571Y-68239286D01*
X129207142Y-68275000D01*
X129171428Y-68310714D01*
X129135714Y-68382143D01*
X129135714Y-68596429D01*
X129171428Y-68667857D01*
X129207142Y-68703571D01*
X129278571Y-68739286D01*
X129421428Y-68739286D01*
X129492857Y-68703571D01*
X128814286Y-68739286D02*
X128814286Y-68239286D01*
X128814286Y-68382143D02*
X128778571Y-68310714D01*
X128742857Y-68275000D01*
X128671428Y-68239286D01*
X128600000Y-68239286D01*
X128242857Y-68739286D02*
X128314285Y-68703571D01*
X128350000Y-68667857D01*
X128385714Y-68596429D01*
X128385714Y-68382143D01*
X128350000Y-68310714D01*
X128314285Y-68275000D01*
X128242857Y-68239286D01*
X128135714Y-68239286D01*
X128064285Y-68275000D01*
X128028571Y-68310714D01*
X127992857Y-68382143D01*
X127992857Y-68596429D01*
X128028571Y-68667857D01*
X128064285Y-68703571D01*
X128135714Y-68739286D01*
X128242857Y-68739286D01*
X127778571Y-68239286D02*
X127492857Y-68239286D01*
X127671429Y-67989286D02*
X127671429Y-68632143D01*
X127635714Y-68703571D01*
X127564286Y-68739286D01*
X127492857Y-68739286D01*
X126957143Y-68703571D02*
X127028572Y-68739286D01*
X127171429Y-68739286D01*
X127242858Y-68703571D01*
X127278572Y-68632143D01*
X127278572Y-68346429D01*
X127242858Y-68275000D01*
X127171429Y-68239286D01*
X127028572Y-68239286D01*
X126957143Y-68275000D01*
X126921429Y-68346429D01*
X126921429Y-68417857D01*
X127278572Y-68489286D01*
X126278572Y-68703571D02*
X126350001Y-68739286D01*
X126492858Y-68739286D01*
X126564286Y-68703571D01*
X126600001Y-68667857D01*
X126635715Y-68596429D01*
X126635715Y-68382143D01*
X126600001Y-68310714D01*
X126564286Y-68275000D01*
X126492858Y-68239286D01*
X126350001Y-68239286D01*
X126278572Y-68275000D01*
X126064286Y-68239286D02*
X125778572Y-68239286D01*
X125957144Y-67989286D02*
X125957144Y-68632143D01*
X125921429Y-68703571D01*
X125850001Y-68739286D01*
X125778572Y-68739286D01*
X125528573Y-68739286D02*
X125528573Y-68239286D01*
X125528573Y-67989286D02*
X125564287Y-68025000D01*
X125528573Y-68060714D01*
X125492858Y-68025000D01*
X125528573Y-67989286D01*
X125528573Y-68060714D01*
X125064287Y-68739286D02*
X125135715Y-68703571D01*
X125171430Y-68667857D01*
X125207144Y-68596429D01*
X125207144Y-68382143D01*
X125171430Y-68310714D01*
X125135715Y-68275000D01*
X125064287Y-68239286D01*
X124957144Y-68239286D01*
X124885715Y-68275000D01*
X124850001Y-68310714D01*
X124814287Y-68382143D01*
X124814287Y-68596429D01*
X124850001Y-68667857D01*
X124885715Y-68703571D01*
X124957144Y-68739286D01*
X125064287Y-68739286D01*
X124492859Y-68239286D02*
X124492859Y-68739286D01*
X124492859Y-68310714D02*
X124457144Y-68275000D01*
X124385716Y-68239286D01*
X124278573Y-68239286D01*
X124207144Y-68275000D01*
X124171430Y-68346429D01*
X124171430Y-68739286D01*
X128885714Y-69409286D02*
X128707143Y-69909286D01*
X128528571Y-69409286D01*
X128099999Y-69159286D02*
X128028571Y-69159286D01*
X127957142Y-69195000D01*
X127921428Y-69230714D01*
X127885714Y-69302143D01*
X127849999Y-69445000D01*
X127849999Y-69623571D01*
X127885714Y-69766429D01*
X127921428Y-69837857D01*
X127957142Y-69873571D01*
X128028571Y-69909286D01*
X128099999Y-69909286D01*
X128171428Y-69873571D01*
X128207142Y-69837857D01*
X128242857Y-69766429D01*
X128278571Y-69623571D01*
X128278571Y-69445000D01*
X128242857Y-69302143D01*
X128207142Y-69230714D01*
X128171428Y-69195000D01*
X128099999Y-69159286D01*
D12*
X136525000Y-71120000D03*
D13*
X136525000Y-69120000D03*
D12*
X120650000Y-69215000D03*
D13*
X120650000Y-71215000D03*
M02*
