G04 #@! TF.FileFunction,Legend,Top*
%FSLAX46Y46*%
G04 Gerber Fmt 4.6, Leading zero omitted, Abs format (unit mm)*
G04 Created by KiCad (PCBNEW 4.0.0-rc1-stable) date 5/15/2016 10:25:25 AM*
%MOMM*%
G01*
G04 APERTURE LIST*
%ADD10C,0.100000*%
%ADD11C,0.120000*%
%ADD12C,0.150000*%
G04 APERTURE END LIST*
D10*
D11*
X131318000Y-66611500D02*
X131318000Y-68008500D01*
X128778000Y-66611500D02*
X128778000Y-68008500D01*
X128778000Y-66611500D02*
X131318000Y-66611500D01*
X131318000Y-68008500D02*
X128778000Y-68008500D01*
X128397000Y-73723500D02*
X128397000Y-72326500D01*
X130937000Y-73723500D02*
X130937000Y-72326500D01*
X130937000Y-73723500D02*
X128397000Y-73723500D01*
X128397000Y-72326500D02*
X130937000Y-72326500D01*
X134493000Y-66611500D02*
X134493000Y-68008500D01*
X131953000Y-66611500D02*
X131953000Y-68008500D01*
X131953000Y-66611500D02*
X134493000Y-66611500D01*
X134493000Y-68008500D02*
X131953000Y-68008500D01*
D12*
X128940803Y-68807000D02*
G75*
G03X128940803Y-68807000I-89803J0D01*
G01*
D11*
X124700000Y-67380000D02*
X124700000Y-68080000D01*
X125900000Y-67380000D02*
X124700000Y-67380000D01*
X125900000Y-69780000D02*
X124700000Y-69780000D01*
X124700000Y-69780000D02*
X124700000Y-69080000D01*
X124700000Y-71190000D02*
X124700000Y-71890000D01*
X125900000Y-71190000D02*
X124700000Y-71190000D01*
X125900000Y-73590000D02*
X124700000Y-73590000D01*
X124700000Y-73590000D02*
X124700000Y-72890000D01*
X135025000Y-73220000D02*
X135025000Y-67020000D01*
X135025000Y-67020000D02*
X141025000Y-67020000D01*
X135025000Y-73220000D02*
X141025000Y-73220000D01*
X122150000Y-67115000D02*
X122150000Y-73315000D01*
X122150000Y-73315000D02*
X116150000Y-73315000D01*
X122150000Y-67115000D02*
X116150000Y-67115000D01*
X127775000Y-66867857D02*
X127739286Y-66903571D01*
X127632143Y-66939286D01*
X127560714Y-66939286D01*
X127453571Y-66903571D01*
X127382143Y-66832143D01*
X127346428Y-66760714D01*
X127310714Y-66617857D01*
X127310714Y-66510714D01*
X127346428Y-66367857D01*
X127382143Y-66296429D01*
X127453571Y-66225000D01*
X127560714Y-66189286D01*
X127632143Y-66189286D01*
X127739286Y-66225000D01*
X127775000Y-66260714D01*
X128489286Y-66939286D02*
X128060714Y-66939286D01*
X128275000Y-66939286D02*
X128275000Y-66189286D01*
X128203571Y-66296429D01*
X128132143Y-66367857D01*
X128060714Y-66403571D01*
X131701000Y-73364286D02*
X131451000Y-73007143D01*
X131272428Y-73364286D02*
X131272428Y-72614286D01*
X131558143Y-72614286D01*
X131629571Y-72650000D01*
X131665286Y-72685714D01*
X131701000Y-72757143D01*
X131701000Y-72864286D01*
X131665286Y-72935714D01*
X131629571Y-72971429D01*
X131558143Y-73007143D01*
X131272428Y-73007143D01*
X132415286Y-73364286D02*
X131986714Y-73364286D01*
X132201000Y-73364286D02*
X132201000Y-72614286D01*
X132129571Y-72721429D01*
X132058143Y-72792857D01*
X131986714Y-72828571D01*
X133860000Y-69173286D02*
X133610000Y-68816143D01*
X133431428Y-69173286D02*
X133431428Y-68423286D01*
X133717143Y-68423286D01*
X133788571Y-68459000D01*
X133824286Y-68494714D01*
X133860000Y-68566143D01*
X133860000Y-68673286D01*
X133824286Y-68744714D01*
X133788571Y-68780429D01*
X133717143Y-68816143D01*
X133431428Y-68816143D01*
X134145714Y-68494714D02*
X134181428Y-68459000D01*
X134252857Y-68423286D01*
X134431428Y-68423286D01*
X134502857Y-68459000D01*
X134538571Y-68494714D01*
X134574286Y-68566143D01*
X134574286Y-68637571D01*
X134538571Y-68744714D01*
X134110000Y-69173286D01*
X134574286Y-69173286D01*
X133032571Y-72233286D02*
X133032571Y-72840429D01*
X133068286Y-72911857D01*
X133104000Y-72947571D01*
X133175429Y-72983286D01*
X133318286Y-72983286D01*
X133389714Y-72947571D01*
X133425429Y-72911857D01*
X133461143Y-72840429D01*
X133461143Y-72233286D01*
X134211143Y-72983286D02*
X133782571Y-72983286D01*
X133996857Y-72983286D02*
X133996857Y-72233286D01*
X133925428Y-72340429D01*
X133854000Y-72411857D01*
X133782571Y-72447571D01*
X123753571Y-67847714D02*
X123682143Y-67812000D01*
X123610714Y-67740571D01*
X123503571Y-67633429D01*
X123432143Y-67597714D01*
X123360714Y-67597714D01*
X123396429Y-67776286D02*
X123325000Y-67740571D01*
X123253571Y-67669143D01*
X123217857Y-67526286D01*
X123217857Y-67276286D01*
X123253571Y-67133429D01*
X123325000Y-67062000D01*
X123396429Y-67026286D01*
X123539286Y-67026286D01*
X123610714Y-67062000D01*
X123682143Y-67133429D01*
X123717857Y-67276286D01*
X123717857Y-67526286D01*
X123682143Y-67669143D01*
X123610714Y-67740571D01*
X123539286Y-67776286D01*
X123396429Y-67776286D01*
X124432143Y-67776286D02*
X124003571Y-67776286D01*
X124217857Y-67776286D02*
X124217857Y-67026286D01*
X124146428Y-67133429D01*
X124075000Y-67204857D01*
X124003571Y-67240571D01*
X123626571Y-73943714D02*
X123555143Y-73908000D01*
X123483714Y-73836571D01*
X123376571Y-73729429D01*
X123305143Y-73693714D01*
X123233714Y-73693714D01*
X123269429Y-73872286D02*
X123198000Y-73836571D01*
X123126571Y-73765143D01*
X123090857Y-73622286D01*
X123090857Y-73372286D01*
X123126571Y-73229429D01*
X123198000Y-73158000D01*
X123269429Y-73122286D01*
X123412286Y-73122286D01*
X123483714Y-73158000D01*
X123555143Y-73229429D01*
X123590857Y-73372286D01*
X123590857Y-73622286D01*
X123555143Y-73765143D01*
X123483714Y-73836571D01*
X123412286Y-73872286D01*
X123269429Y-73872286D01*
X123876571Y-73193714D02*
X123912285Y-73158000D01*
X123983714Y-73122286D01*
X124162285Y-73122286D01*
X124233714Y-73158000D01*
X124269428Y-73193714D01*
X124305143Y-73265143D01*
X124305143Y-73336571D01*
X124269428Y-73443714D01*
X123840857Y-73872286D01*
X124305143Y-73872286D01*
X133735000Y-70582286D02*
X133735000Y-71118000D01*
X133699286Y-71225143D01*
X133627857Y-71296571D01*
X133520714Y-71332286D01*
X133449286Y-71332286D01*
X134485001Y-71332286D02*
X134056429Y-71332286D01*
X134270715Y-71332286D02*
X134270715Y-70582286D01*
X134199286Y-70689429D01*
X134127858Y-70760857D01*
X134056429Y-70796571D01*
X122813000Y-69312286D02*
X122813000Y-69848000D01*
X122777286Y-69955143D01*
X122705857Y-70026571D01*
X122598714Y-70062286D01*
X122527286Y-70062286D01*
X123134429Y-69383714D02*
X123170143Y-69348000D01*
X123241572Y-69312286D01*
X123420143Y-69312286D01*
X123491572Y-69348000D01*
X123527286Y-69383714D01*
X123563001Y-69455143D01*
X123563001Y-69526571D01*
X123527286Y-69633714D01*
X123098715Y-70062286D01*
X123563001Y-70062286D01*
M02*
