G04 #@! TF.FileFunction,Copper,L2,Bot,Signal*
%FSLAX46Y46*%
G04 Gerber Fmt 4.6, Leading zero omitted, Abs format (unit mm)*
G04 Created by KiCad (PCBNEW 4.0.0-rc1-stable) date 5/15/2016 10:25:25 AM*
%MOMM*%
G01*
G04 APERTURE LIST*
%ADD10C,0.100000*%
%ADD11R,1.500000X1.500000*%
%ADD12C,1.500000*%
%ADD13C,0.600000*%
%ADD14C,0.250000*%
%ADD15C,0.254000*%
G04 APERTURE END LIST*
D10*
D11*
X136525000Y-71120000D03*
D12*
X136525000Y-69120000D03*
D11*
X120650000Y-69215000D03*
D12*
X120650000Y-71215000D03*
D13*
X135000000Y-67350000D03*
X133536551Y-70015449D03*
D14*
X133536551Y-70015449D02*
X133536551Y-68813449D01*
X133536551Y-68813449D02*
X135000000Y-67350000D01*
D15*
G36*
X139894000Y-66888882D02*
X139894000Y-73361118D01*
X139411118Y-73844000D01*
X117788882Y-73844000D01*
X117306000Y-73361118D01*
X117306000Y-68465000D01*
X119511536Y-68465000D01*
X119511536Y-69965000D01*
X119538103Y-70106190D01*
X119621546Y-70235865D01*
X119748866Y-70322859D01*
X119900000Y-70353464D01*
X119912167Y-70353464D01*
X119691744Y-70573503D01*
X119519196Y-70989043D01*
X119518804Y-71438983D01*
X119690625Y-71854823D01*
X120008503Y-72173256D01*
X120424043Y-72345804D01*
X120873983Y-72346196D01*
X121289823Y-72174375D01*
X121608256Y-71856497D01*
X121780804Y-71440957D01*
X121781196Y-70991017D01*
X121609375Y-70575177D01*
X121388048Y-70353464D01*
X121400000Y-70353464D01*
X121541190Y-70326897D01*
X121670865Y-70243454D01*
X121734504Y-70150314D01*
X132855433Y-70150314D01*
X132958890Y-70400701D01*
X133150292Y-70592436D01*
X133400497Y-70696331D01*
X133671416Y-70696567D01*
X133921803Y-70593110D01*
X134113538Y-70401708D01*
X134217433Y-70151503D01*
X134217669Y-69880584D01*
X134114212Y-69630197D01*
X134042551Y-69558411D01*
X134042551Y-69023041D01*
X134150421Y-68915171D01*
X135127799Y-68915171D01*
X135155770Y-69465448D01*
X135312540Y-69843923D01*
X135553481Y-69911911D01*
X135438426Y-70026966D01*
X135503677Y-70092217D01*
X135417141Y-70218866D01*
X135386536Y-70370000D01*
X135386536Y-71870000D01*
X135413103Y-72011190D01*
X135496546Y-72140865D01*
X135623866Y-72227859D01*
X135775000Y-72258464D01*
X137275000Y-72258464D01*
X137416190Y-72231897D01*
X137545865Y-72148454D01*
X137632859Y-72021134D01*
X137663464Y-71870000D01*
X137663464Y-70370000D01*
X137636897Y-70228810D01*
X137553454Y-70099135D01*
X137545108Y-70093432D01*
X137611574Y-70026966D01*
X137496519Y-69911911D01*
X137737460Y-69843923D01*
X137922201Y-69324829D01*
X137894230Y-68774552D01*
X137737460Y-68396077D01*
X137496517Y-68328088D01*
X136704605Y-69120000D01*
X136718748Y-69134143D01*
X136539143Y-69313748D01*
X136525000Y-69299605D01*
X136510858Y-69313748D01*
X136331253Y-69134143D01*
X136345395Y-69120000D01*
X135553483Y-68328088D01*
X135312540Y-68396077D01*
X135127799Y-68915171D01*
X134150421Y-68915171D01*
X134917109Y-68148483D01*
X135733088Y-68148483D01*
X136525000Y-68940395D01*
X137316912Y-68148483D01*
X137248923Y-67907540D01*
X136729829Y-67722799D01*
X136179552Y-67750770D01*
X135801077Y-67907540D01*
X135733088Y-68148483D01*
X134917109Y-68148483D01*
X135034561Y-68031031D01*
X135134865Y-68031118D01*
X135385252Y-67927661D01*
X135576987Y-67736259D01*
X135680882Y-67486054D01*
X135681118Y-67215135D01*
X135577661Y-66964748D01*
X135386259Y-66773013D01*
X135136054Y-66669118D01*
X134865135Y-66668882D01*
X134614748Y-66772339D01*
X134423013Y-66963741D01*
X134319118Y-67213946D01*
X134319030Y-67315378D01*
X133178755Y-68455653D01*
X133069068Y-68619811D01*
X133030551Y-68813449D01*
X133030551Y-69558326D01*
X132959564Y-69629190D01*
X132855669Y-69879395D01*
X132855433Y-70150314D01*
X121734504Y-70150314D01*
X121757859Y-70116134D01*
X121788464Y-69965000D01*
X121788464Y-68465000D01*
X121761897Y-68323810D01*
X121678454Y-68194135D01*
X121551134Y-68107141D01*
X121400000Y-68076536D01*
X119900000Y-68076536D01*
X119758810Y-68103103D01*
X119629135Y-68186546D01*
X119542141Y-68313866D01*
X119511536Y-68465000D01*
X117306000Y-68465000D01*
X117306000Y-66888882D01*
X117788882Y-66406000D01*
X139411118Y-66406000D01*
X139894000Y-66888882D01*
X139894000Y-66888882D01*
G37*
X139894000Y-66888882D02*
X139894000Y-73361118D01*
X139411118Y-73844000D01*
X117788882Y-73844000D01*
X117306000Y-73361118D01*
X117306000Y-68465000D01*
X119511536Y-68465000D01*
X119511536Y-69965000D01*
X119538103Y-70106190D01*
X119621546Y-70235865D01*
X119748866Y-70322859D01*
X119900000Y-70353464D01*
X119912167Y-70353464D01*
X119691744Y-70573503D01*
X119519196Y-70989043D01*
X119518804Y-71438983D01*
X119690625Y-71854823D01*
X120008503Y-72173256D01*
X120424043Y-72345804D01*
X120873983Y-72346196D01*
X121289823Y-72174375D01*
X121608256Y-71856497D01*
X121780804Y-71440957D01*
X121781196Y-70991017D01*
X121609375Y-70575177D01*
X121388048Y-70353464D01*
X121400000Y-70353464D01*
X121541190Y-70326897D01*
X121670865Y-70243454D01*
X121734504Y-70150314D01*
X132855433Y-70150314D01*
X132958890Y-70400701D01*
X133150292Y-70592436D01*
X133400497Y-70696331D01*
X133671416Y-70696567D01*
X133921803Y-70593110D01*
X134113538Y-70401708D01*
X134217433Y-70151503D01*
X134217669Y-69880584D01*
X134114212Y-69630197D01*
X134042551Y-69558411D01*
X134042551Y-69023041D01*
X134150421Y-68915171D01*
X135127799Y-68915171D01*
X135155770Y-69465448D01*
X135312540Y-69843923D01*
X135553481Y-69911911D01*
X135438426Y-70026966D01*
X135503677Y-70092217D01*
X135417141Y-70218866D01*
X135386536Y-70370000D01*
X135386536Y-71870000D01*
X135413103Y-72011190D01*
X135496546Y-72140865D01*
X135623866Y-72227859D01*
X135775000Y-72258464D01*
X137275000Y-72258464D01*
X137416190Y-72231897D01*
X137545865Y-72148454D01*
X137632859Y-72021134D01*
X137663464Y-71870000D01*
X137663464Y-70370000D01*
X137636897Y-70228810D01*
X137553454Y-70099135D01*
X137545108Y-70093432D01*
X137611574Y-70026966D01*
X137496519Y-69911911D01*
X137737460Y-69843923D01*
X137922201Y-69324829D01*
X137894230Y-68774552D01*
X137737460Y-68396077D01*
X137496517Y-68328088D01*
X136704605Y-69120000D01*
X136718748Y-69134143D01*
X136539143Y-69313748D01*
X136525000Y-69299605D01*
X136510858Y-69313748D01*
X136331253Y-69134143D01*
X136345395Y-69120000D01*
X135553483Y-68328088D01*
X135312540Y-68396077D01*
X135127799Y-68915171D01*
X134150421Y-68915171D01*
X134917109Y-68148483D01*
X135733088Y-68148483D01*
X136525000Y-68940395D01*
X137316912Y-68148483D01*
X137248923Y-67907540D01*
X136729829Y-67722799D01*
X136179552Y-67750770D01*
X135801077Y-67907540D01*
X135733088Y-68148483D01*
X134917109Y-68148483D01*
X135034561Y-68031031D01*
X135134865Y-68031118D01*
X135385252Y-67927661D01*
X135576987Y-67736259D01*
X135680882Y-67486054D01*
X135681118Y-67215135D01*
X135577661Y-66964748D01*
X135386259Y-66773013D01*
X135136054Y-66669118D01*
X134865135Y-66668882D01*
X134614748Y-66772339D01*
X134423013Y-66963741D01*
X134319118Y-67213946D01*
X134319030Y-67315378D01*
X133178755Y-68455653D01*
X133069068Y-68619811D01*
X133030551Y-68813449D01*
X133030551Y-69558326D01*
X132959564Y-69629190D01*
X132855669Y-69879395D01*
X132855433Y-70150314D01*
X121734504Y-70150314D01*
X121757859Y-70116134D01*
X121788464Y-69965000D01*
X121788464Y-68465000D01*
X121761897Y-68323810D01*
X121678454Y-68194135D01*
X121551134Y-68107141D01*
X121400000Y-68076536D01*
X119900000Y-68076536D01*
X119758810Y-68103103D01*
X119629135Y-68186546D01*
X119542141Y-68313866D01*
X119511536Y-68465000D01*
X117306000Y-68465000D01*
X117306000Y-66888882D01*
X117788882Y-66406000D01*
X139411118Y-66406000D01*
X139894000Y-66888882D01*
M02*
